# xmcd CD database file
#
# Track frame offsets:
#	150
#	19143
#	37744
#	52597
#	67449
#	84776
#	102102
#	118077
#	134052
#	151305
#	168556
#	181458
#	194360
#	210335
#	226311
#	242661
#	259011
#	276261
#	293511
#	312270
#	331020
#
# Disc length: 4441 seconds
#
# Revision: 0
# Processed by: cddbd v1.5.2PL0 Copyright (c) Steve Scherf et al.
# Submitted via: CDex 1.51
#
DISCID=1e115715
DTITLE=Mark Taylor - Hal Leonard - Vol 56 Georgia on My Mind and Other Songs
DYEAR=1900
DGENRE=Jazz
TTITLE0=Georgia on My Mind Split
TTITLE1=Georgia on My Mind Stereo
TTITLE2=Heart and Soul Split
TTITLE3=Heart and Soul Stereo
TTITLE4=I Get Along Without You Very Well Split
TTITLE5=I Get ALong Without You Very Well Stereo
TTITLE6=In the Cool, Cool, Cool of the Evening Split
TTITLE7=In the Cool, Cool, Cool of the Evening Stereo
TTITLE8=Lazy River Split
TTITLE9=Lazy River Stereo
TTITLE10=Lazybones Split
TTITLE11=Lazybones Stereo
TTITLE12=One Morning in May Split
TTITLE13=One Morning in May Stereo
TTITLE14=Rockin' Chair Split
TTITLE15=Rockin' Chair Stereo
TTITLE16=Skylark Split
TTITLE17=Skylark Stereo
TTITLE18=Stardust Split
TTITLE19=Stardust Stereo
TTITLE20=Bb Tuningt Notes
EXTD=
EXTT0=
EXTT1=
EXTT2=
EXTT3=
EXTT4=
EXTT5=
EXTT6=
EXTT7=
EXTT8=
EXTT9=
EXTT10=
EXTT11=
EXTT12=
EXTT13=
EXTT14=
EXTT15=
EXTT16=
EXTT17=
EXTT18=
EXTT19=
EXTT20=
PLAYORDER=
